<?xml version="1.0" encoding="UTF-8" standalone="no"?>
<!-- This is a Stata 16.1 generated SVG file (http://www.stata.com) -->

<svg version="1.1" width="5.50in" height="4.00in" viewBox="0 0 3960 2880" xmlns="http://www.w3.org/2000/svg" xmlns:xlink="http://www.w3.org/1999/xlink">
	<desc>Stata Graph - plotIU</desc>
	<rect x="0" y="0" width="3960" height="2880" style="fill:#EAF2F3;stroke:none"/>
	<rect x="0.00" y="0.00" width="3959.88" height="2880.00" style="fill:#EAF2F3"/>
	<rect x="2.88" y="2.88" width="3954.12" height="2874.24" style="fill:none;stroke:#EAF2F3;stroke-width:5.76"/>
	<rect x="290.81" y="100.86" width="3568.21" height="2392.78" style="fill:#FFFFFF"/>
	<rect x="293.69" y="103.74" width="3562.45" height="2387.02" style="fill:none;stroke:#FFFFFF;stroke-width:5.76"/>
	<line x1="290.81" y1="2382.01" x2="3859.02" y2="2382.01" style="stroke:#EAF2F3;stroke-width:8.64"/>
	<line x1="290.81" y1="1836.88" x2="3859.02" y2="1836.88" style="stroke:#EAF2F3;stroke-width:8.64"/>
	<line x1="290.81" y1="1291.74" x2="3859.02" y2="1291.74" style="stroke:#EAF2F3;stroke-width:8.64"/>
	<line x1="290.81" y1="746.73" x2="3859.02" y2="746.73" style="stroke:#EAF2F3;stroke-width:8.64"/>
	<line x1="290.81" y1="201.60" x2="3859.02" y2="201.60" style="stroke:#EAF2F3;stroke-width:8.64"/>
	<rect x="638.18" y="882.98" width="1233.29" height="594.14" style="fill:#8DA3B7"/>
	<rect x="642.50" y="887.30" width="1224.65" height="585.50" style="fill:none;stroke:#1A476F;stroke-width:8.64"/>
	<line x1="638.18" y1="1133.71" x2="1871.47" y2="1133.71" style="stroke:#1A476F;stroke-width:8.64"/>
	<line x1="1254.83" y1="1477.13" x2="1254.83" y2="1804.21" style="stroke:#1A476F;stroke-width:8.64"/>
	<line x1="1254.83" y1="882.98" x2="1254.83" y2="376.09" style="stroke:#1A476F;stroke-width:8.64"/>
	<line x1="841.75" y1="1804.21" x2="1668.03" y2="1804.21" style="stroke:#1A476F;stroke-width:8.64"/>
	<line x1="841.75" y1="376.09" x2="1668.03" y2="376.09" style="stroke:#1A476F;stroke-width:8.64"/>
	<rect x="2278.36" y="1537.02" width="1233.29" height="517.91" style="fill:#C89A9D"/>
	<rect x="2282.68" y="1541.34" width="1224.65" height="509.27" style="fill:none;stroke:#90353B;stroke-width:8.64"/>
	<line x1="2278.36" y1="1880.44" x2="3511.65" y2="1880.44" style="stroke:#90353B;stroke-width:8.64"/>
	<line x1="2895.01" y1="2054.93" x2="2895.01" y2="2392.90" style="stroke:#90353B;stroke-width:8.64"/>
	<line x1="2895.01" y1="1537.02" x2="2895.01" y2="1248.18" style="stroke:#90353B;stroke-width:8.64"/>
	<line x1="2481.93" y1="2392.90" x2="3308.21" y2="2392.90" style="stroke:#90353B;stroke-width:8.64"/>
	<line x1="2481.93" y1="1248.18" x2="3308.21" y2="1248.18" style="stroke:#90353B;stroke-width:8.64"/>
	<circle cx="2895.01" cy="626.81" r="26.35" style="fill:#90353B"/>
	<circle cx="2895.01" cy="626.81" r="22.03" style="fill:none;stroke:#90353B;stroke-width:8.64"/>
	<line x1="290.81" y1="2493.64" x2="290.81" y2="100.86" style="stroke:#000000;stroke-width:5.76"/>
	<line x1="290.81" y1="2382.01" x2="250.84" y2="2382.01" style="stroke:#000000;stroke-width:5.76"/>
	<text x="200.73" y="2382.01" style="font-family:'Helvetica';font-size:99.99px;fill:#000000" transform="rotate(-90 200.73,2382.01)" text-anchor="middle">.5</text>
	<line x1="290.81" y1="1836.88" x2="250.84" y2="1836.88" style="stroke:#000000;stroke-width:5.76"/>
	<text x="200.73" y="1836.88" style="font-family:'Helvetica';font-size:99.99px;fill:#000000" transform="rotate(-90 200.73,1836.88)" text-anchor="middle">1</text>
	<line x1="290.81" y1="1291.74" x2="250.84" y2="1291.74" style="stroke:#000000;stroke-width:5.76"/>
	<text x="200.73" y="1291.74" style="font-family:'Helvetica';font-size:99.99px;fill:#000000" transform="rotate(-90 200.73,1291.74)" text-anchor="middle">1.5</text>
	<line x1="290.81" y1="746.73" x2="250.84" y2="746.73" style="stroke:#000000;stroke-width:5.76"/>
	<text x="200.73" y="746.73" style="font-family:'Helvetica';font-size:99.99px;fill:#000000" transform="rotate(-90 200.73,746.73)" text-anchor="middle">2</text>
	<line x1="290.81" y1="201.60" x2="250.84" y2="201.60" style="stroke:#000000;stroke-width:5.76"/>
	<text x="200.73" y="201.60" style="font-family:'Helvetica';font-size:99.99px;fill:#000000" transform="rotate(-90 200.73,201.60)" text-anchor="middle">2.5</text>
	<line x1="290.81" y1="2493.64" x2="3859.02" y2="2493.64" style="stroke:#000000;stroke-width:5.76"/>
	<rect x="1476.34" y="2558.24" width="1197.16" height="186.37" style="fill:#FFFFFF"/>
	<rect x="1479.22" y="2561.12" width="1191.40" height="180.61" style="fill:none;stroke:#000000;stroke-width:5.76"/>
	<rect x="1519.53" y="2601.43" width="374.34" height="99.99" style="fill:#8DA3B7"/>
	<rect x="1523.85" y="2605.75" width="365.70" height="91.35" style="fill:none;stroke:#1A476F;stroke-width:8.64"/>
	<rect x="2120.09" y="2601.43" width="374.47" height="99.99" style="fill:#C89A9D"/>
	<rect x="2124.40" y="2605.75" width="365.83" height="91.35" style="fill:none;stroke:#90353B;stroke-width:8.64"/>
	<text x="1953.89" y="2686.46" style="font-family:'Helvetica';font-size:99.99px;fill:#000000">I</text>
	<text x="2554.57" y="2686.46" style="font-family:'Helvetica';font-size:99.99px;fill:#000000">U</text>
</svg>
